<?xml version="1.0" standalone="no"?>
<!DOCTYPE svg PUBLIC "-//W3C//DTD SVG 20010904//EN"
 "http://www.w3.org/TR/2001/REC-SVG-20010904/DTD/svg10.dtd">
<svg version="1.0" xmlns="http://www.w3.org/2000/svg"
 width="243.000000pt" height="243.000000pt" viewBox="0 0 243.000000 243.000000"
 preserveAspectRatio="xMidYMid meet">

<g transform="translate(0.000000,243.000000) scale(0.100000,-0.100000)"
fill="#000000" stroke="none">
<path d="M601 2404 c-61 -31 -95 -77 -111 -149 -7 -34 -10 -376 -8 -1070 l3
-1020 23 -43 c22 -42 90 -100 121 -104 9 -2 -114 -5 -274 -8 -160 -3 243 -6
895 -6 652 0 1142 2 1090 5 -90 6 -95 7 -98 30 -3 22 -7 23 -50 18 -32 -3 -51
-12 -61 -26 -17 -27 -41 -27 -41 -1 0 17 -7 20 -48 20 -36 0 -54 -5 -67 -20
-17 -19 -31 -20 -234 -20 -188 1 -212 3 -186 14 17 7 45 28 63 46 64 64 62 32
62 811 0 466 3 709 10 709 6 0 10 50 10 130 0 80 -4 130 -10 130 -6 0 -10 76
-10 208 0 179 -3 212 -19 247 -23 51 -79 101 -128 114 -24 7 -196 11 -459 11
l-420 0 -53 -26z m189 -54 c0 -19 9 -40 25 -55 l24 -25 244 0 c232 0 246 1
271 21 19 15 26 29 26 56 l0 36 76 -6 c90 -7 134 -32 164 -93 20 -39 20 -63
20 -1065 l0 -1025 -22 -44 c-17 -33 -35 -51 -68 -68 -44 -22 -49 -22 -460 -22
-411 0 -416 0 -460 22 -33 17 -51 35 -68 68 l-22 44 0 1023 c0 1113 -3 1060
56 1115 34 31 80 46 147 47 46 1 47 0 47 -29z"/>
<path d="M810 1595 l0 -265 270 0 270 0 0 265 0 265 -270 0 -270 0 0 -265z
m354 178 c3 -16 8 -38 12 -50 5 -18 2 -21 -13 -17 -14 4 -27 -12 -60 -73 -62
-114 -55 -107 -92 -89 -17 9 -31 19 -31 22 0 4 23 47 51 97 47 83 50 91 33
100 -16 9 -13 12 21 23 62 19 72 17 79 -13z m-108 -32 c-42 -78 -89 -150 -95
-146 -12 7 -20 56 -14 88 3 15 18 41 33 57 25 27 31 29 54 19 14 -7 24 -15 22
-18z m127 -65 c45 -34 -31 -146 -98 -146 -13 0 -7 17 26 80 24 44 45 80 48 80
3 0 14 -7 24 -14z m-280 -193 c-7 -2 -13 -12 -13 -21 0 -15 2 -15 10 -2 8 13
10 12 10 -2 0 -21 -26 -24 -33 -4 -6 15 11 36 28 35 5 0 4 -3 -2 -6z m47 -20
c0 -20 -3 -24 -9 -14 -7 11 -9 11 -14 0 -3 -8 -6 -2 -6 14 -1 18 4 27 14 27
10 0 15 -10 15 -27z m47 11 c8 -21 -13 -42 -28 -27 -13 13 -5 43 11 43 6 0 13
-7 17 -16z m83 5 c0 -5 -4 -7 -10 -4 -5 3 -10 -3 -10 -14 0 -12 -4 -21 -10
-21 -14 0 -13 23 2 38 15 15 28 15 28 1z m82 -14 c-2 -14 -6 -25 -7 -25 -1 0
-5 11 -7 25 -3 16 -1 25 7 25 8 0 10 -9 7 -25z m34 0 c0 -14 -4 -25 -8 -25 -4
0 -8 11 -8 25 0 14 4 25 8 25 4 0 8 -11 8 -25z m37 18 c-7 -2 -13 -11 -13 -18
0 -7 6 -16 13 -18 9 -4 9 -6 0 -6 -6 -1 -15 4 -18 9 -9 15 2 40 17 39 10 0 10
-2 1 -6z m38 -23 c-3 -3 -9 -9 -13 -14 -5 -5 -8 3 -8 18 0 22 2 25 14 14 8 -7
11 -15 7 -18z m-241 -6 c0 -8 -4 -12 -10 -9 -5 3 -10 13 -10 21 0 8 5 12 10 9
6 -3 10 -13 10 -21z m62 -6 c-7 -7 -12 -8 -12 -2 0 14 12 26 19 19 2 -3 -1
-11 -7 -17z m48 10 c0 -4 -7 -8 -15 -8 -8 0 -15 4 -15 8 0 5 7 9 15 9 8 0 15
-4 15 -9z"/>
<path d="M970 1465 c0 -8 5 -15 10 -15 6 0 10 7 10 15 0 8 -4 15 -10 15 -5 0
-10 -7 -10 -15z"/>
<path d="M2043 1270 c-21 -12 -33 -28 -33 -41 0 -16 3 -19 13 -12 6 5 33 8 58
5 42 -3 47 -7 53 -33 9 -44 36 -38 36 8 0 26 -8 45 -27 65 -32 33 -56 35 -100
8z"/>
<path d="M2065 605 c-59 -28 -71 -29 -107 -11 -28 15 -28 15 -27 -17 0 -18 19
-138 43 -267 l43 -235 34 0 34 0 5 130 c4 92 7 121 13 100 5 -16 22 -74 38
-127 30 -95 31 -98 60 -98 17 0 32 6 35 15 8 19 -66 506 -79 523 -13 17 -34
14 -92 -13z"/>
</g>
</svg>
